<?xml version="1.0" encoding="UTF-8"?> <svg xmlns="http://www.w3.org/2000/svg" width="48" height="27" viewBox="0 0 48 27" fill="none"><path d="M38.4 3.5C38.4 3.5 37.9 3.6 37.9 3.8C37.9 4 37.9 7.5 37.9 7.5C37.9 7.5 37.9 7.5 38.1 7.5C38.3 7.5 39.9 7.5 40.4 8.9C40.6 10.6 40.4 10.6 40.4 10.6V27H47.4V0H43.3C43.3 0 41.2 2.5 38.3 3.5H38.4ZM25.9 3.5C25.9 3.5 25.4 3.6 25.4 3.8C25.4 4 25.4 7.5 25.4 7.5C25.4 7.5 25.4 7.5 25.6 7.5C25.8 7.5 27.5 7.5 27.9 8.9C28.1 10.6 27.9 10.6 27.9 10.6V27H34.9V0H30.8C30.8 0 28.8 2.5 25.8 3.5H25.9ZM13.1 3.5C13.1 3.5 12.6 3.6 12.6 3.8C12.6 4 12.6 7.5 12.6 7.5C12.6 7.5 12.6 7.5 12.8 7.5C13 7.5 14.7 7.5 15.1 8.9C15.3 10.6 15.1 10.6 15.1 10.6V27H22.1V0H18C18 0 16 2.5 13 3.5H13.1ZM0.5 3.5C0.5 3.5 0 3.6 0 3.8C0 4 0 7.4 0 7.4C0 7.4 0 7.4 0.2 7.4C0.4 7.4 2 7.4 2.5 8.8C2.7 10.5 2.5 10.5 2.5 10.5V26.9H9.5V0H5.4C5.4 0 3.4 2.5 0.5 3.5Z" fill="#E50012"></path></svg> 